<mxfile host="app.diagrams.net" modified="2023-10-10T15:10:03.294Z" agent="Mozilla/5.0 (Windows NT 10.0; Win64; x64) AppleWebKit/537.36 (KHTML, like Gecko) Chrome/117.0.0.0 Safari/537.36" etag="ByWeGT3X22B_VnUtvRFt" version="22.0.4" type="device">
  <diagram name="Страница — 1" id="AC1TFXzAa4v5C3JpwrRK">
    <mxGraphModel dx="1221" dy="769" grid="1" gridSize="10" guides="1" tooltips="1" connect="1" arrows="1" fold="1" page="1" pageScale="1" pageWidth="827" pageHeight="1169" math="0" shadow="0">
      <root>
        <mxCell id="0" />
        <mxCell id="1" parent="0" />
        <mxCell id="IzksTHtcqxOwPL2J7-iJ-4" value="" style="edgeStyle=orthogonalEdgeStyle;rounded=0;orthogonalLoop=1;jettySize=auto;html=1;" edge="1" parent="1" source="IzksTHtcqxOwPL2J7-iJ-1">
          <mxGeometry relative="1" as="geometry">
            <mxPoint x="422" y="160" as="targetPoint" />
          </mxGeometry>
        </mxCell>
        <mxCell id="IzksTHtcqxOwPL2J7-iJ-1" value="start" style="ellipse;whiteSpace=wrap;html=1;" vertex="1" parent="1">
          <mxGeometry x="370" y="20" width="104" height="60" as="geometry" />
        </mxCell>
        <mxCell id="IzksTHtcqxOwPL2J7-iJ-7" value="" style="edgeStyle=orthogonalEdgeStyle;rounded=0;orthogonalLoop=1;jettySize=auto;html=1;" edge="1" parent="1" source="IzksTHtcqxOwPL2J7-iJ-5" target="IzksTHtcqxOwPL2J7-iJ-6">
          <mxGeometry relative="1" as="geometry" />
        </mxCell>
        <mxCell id="IzksTHtcqxOwPL2J7-iJ-5" value="n&lt;br&gt;a [ ]" style="shape=parallelogram;perimeter=parallelogramPerimeter;whiteSpace=wrap;html=1;fixedSize=1;" vertex="1" parent="1">
          <mxGeometry x="362" y="160" width="120" height="60" as="geometry" />
        </mxCell>
        <mxCell id="IzksTHtcqxOwPL2J7-iJ-9" value="" style="edgeStyle=orthogonalEdgeStyle;rounded=0;orthogonalLoop=1;jettySize=auto;html=1;" edge="1" parent="1" source="IzksTHtcqxOwPL2J7-iJ-6" target="IzksTHtcqxOwPL2J7-iJ-8">
          <mxGeometry relative="1" as="geometry" />
        </mxCell>
        <mxCell id="IzksTHtcqxOwPL2J7-iJ-6" value="i=0&lt;br&gt;count=0" style="whiteSpace=wrap;html=1;" vertex="1" parent="1">
          <mxGeometry x="362" y="300" width="120" height="60" as="geometry" />
        </mxCell>
        <mxCell id="IzksTHtcqxOwPL2J7-iJ-13" value="" style="edgeStyle=orthogonalEdgeStyle;rounded=0;orthogonalLoop=1;jettySize=auto;html=1;" edge="1" parent="1" source="IzksTHtcqxOwPL2J7-iJ-8" target="IzksTHtcqxOwPL2J7-iJ-12">
          <mxGeometry relative="1" as="geometry" />
        </mxCell>
        <mxCell id="IzksTHtcqxOwPL2J7-iJ-26" value="" style="edgeStyle=orthogonalEdgeStyle;rounded=0;orthogonalLoop=1;jettySize=auto;html=1;entryX=0.5;entryY=0;entryDx=0;entryDy=0;" edge="1" parent="1" source="IzksTHtcqxOwPL2J7-iJ-8" target="IzksTHtcqxOwPL2J7-iJ-25">
          <mxGeometry relative="1" as="geometry">
            <Array as="points">
              <mxPoint x="240" y="470" />
            </Array>
          </mxGeometry>
        </mxCell>
        <mxCell id="IzksTHtcqxOwPL2J7-iJ-8" value="i&amp;lt;n" style="rhombus;whiteSpace=wrap;html=1;" vertex="1" parent="1">
          <mxGeometry x="382" y="430" width="80" height="80" as="geometry" />
        </mxCell>
        <mxCell id="IzksTHtcqxOwPL2J7-iJ-12" value="" style="ellipse;whiteSpace=wrap;html=1;" vertex="1" parent="1">
          <mxGeometry x="620" y="445" width="48" height="50" as="geometry" />
        </mxCell>
        <mxCell id="IzksTHtcqxOwPL2J7-iJ-18" value="no" style="text;html=1;align=center;verticalAlign=middle;resizable=0;points=[];autosize=1;strokeColor=none;fillColor=none;" vertex="1" parent="1">
          <mxGeometry x="470" y="438" width="40" height="30" as="geometry" />
        </mxCell>
        <mxCell id="IzksTHtcqxOwPL2J7-iJ-19" value="yes" style="text;html=1;align=center;verticalAlign=middle;resizable=0;points=[];autosize=1;strokeColor=none;fillColor=none;" vertex="1" parent="1">
          <mxGeometry x="350" y="438" width="40" height="30" as="geometry" />
        </mxCell>
        <mxCell id="IzksTHtcqxOwPL2J7-iJ-20" value="" style="endArrow=none;html=1;rounded=0;exitX=0;exitY=1;exitDx=0;exitDy=0;entryX=1;entryY=0;entryDx=0;entryDy=0;" edge="1" parent="1" source="IzksTHtcqxOwPL2J7-iJ-12" target="IzksTHtcqxOwPL2J7-iJ-12">
          <mxGeometry width="50" height="50" relative="1" as="geometry">
            <mxPoint x="640" y="480" as="sourcePoint" />
            <mxPoint x="660" y="460" as="targetPoint" />
          </mxGeometry>
        </mxCell>
        <mxCell id="IzksTHtcqxOwPL2J7-iJ-21" value="" style="endArrow=none;html=1;rounded=0;exitX=0;exitY=0;exitDx=0;exitDy=0;entryX=1;entryY=1;entryDx=0;entryDy=0;" edge="1" parent="1" source="IzksTHtcqxOwPL2J7-iJ-12" target="IzksTHtcqxOwPL2J7-iJ-12">
          <mxGeometry width="50" height="50" relative="1" as="geometry">
            <mxPoint x="594" y="425" as="sourcePoint" />
            <mxPoint x="694" y="515" as="targetPoint" />
          </mxGeometry>
        </mxCell>
        <mxCell id="IzksTHtcqxOwPL2J7-iJ-31" style="edgeStyle=orthogonalEdgeStyle;rounded=0;orthogonalLoop=1;jettySize=auto;html=1;" edge="1" parent="1" source="IzksTHtcqxOwPL2J7-iJ-22" target="IzksTHtcqxOwPL2J7-iJ-8">
          <mxGeometry relative="1" as="geometry" />
        </mxCell>
        <mxCell id="IzksTHtcqxOwPL2J7-iJ-22" value="&lt;div&gt;sum += a[i];&lt;/div&gt;&lt;div&gt;count++;&lt;/div&gt;" style="rounded=0;whiteSpace=wrap;html=1;" vertex="1" parent="1">
          <mxGeometry x="155" y="660" width="160" height="60" as="geometry" />
        </mxCell>
        <mxCell id="IzksTHtcqxOwPL2J7-iJ-27" style="edgeStyle=orthogonalEdgeStyle;rounded=0;orthogonalLoop=1;jettySize=auto;html=1;entryX=0.5;entryY=0;entryDx=0;entryDy=0;" edge="1" parent="1" source="IzksTHtcqxOwPL2J7-iJ-25" target="IzksTHtcqxOwPL2J7-iJ-22">
          <mxGeometry relative="1" as="geometry" />
        </mxCell>
        <mxCell id="IzksTHtcqxOwPL2J7-iJ-30" style="edgeStyle=orthogonalEdgeStyle;rounded=0;orthogonalLoop=1;jettySize=auto;html=1;entryX=0.5;entryY=1;entryDx=0;entryDy=0;" edge="1" parent="1" source="IzksTHtcqxOwPL2J7-iJ-25" target="IzksTHtcqxOwPL2J7-iJ-8">
          <mxGeometry relative="1" as="geometry">
            <Array as="points">
              <mxPoint x="360" y="545" />
              <mxPoint x="360" y="510" />
            </Array>
          </mxGeometry>
        </mxCell>
        <mxCell id="IzksTHtcqxOwPL2J7-iJ-25" value="(a[i] &amp;gt; 0)" style="rhombus;whiteSpace=wrap;html=1;" vertex="1" parent="1">
          <mxGeometry x="170" y="505" width="130" height="80" as="geometry" />
        </mxCell>
        <mxCell id="IzksTHtcqxOwPL2J7-iJ-28" value="yes" style="text;html=1;align=center;verticalAlign=middle;resizable=0;points=[];autosize=1;strokeColor=none;fillColor=none;" vertex="1" parent="1">
          <mxGeometry x="250" y="600" width="40" height="30" as="geometry" />
        </mxCell>
        <mxCell id="IzksTHtcqxOwPL2J7-iJ-29" value="no" style="text;html=1;align=center;verticalAlign=middle;resizable=0;points=[];autosize=1;strokeColor=none;fillColor=none;" vertex="1" parent="1">
          <mxGeometry x="305" y="520" width="40" height="30" as="geometry" />
        </mxCell>
      </root>
    </mxGraphModel>
  </diagram>
</mxfile>
